<?xml version="1.0" encoding="UTF-8"?>
<svg version="1.1" xmlns="http://www.w3.org/2000/svg" width="150" height="150">
<path d="M0 0 C0.03738281 0.88042969 0.07476562 1.76085937 0.11328125 2.66796875 C0.21189453 4.41013672 0.21189453 4.41013672 0.3125 6.1875 C0.37050781 7.33605469 0.42851563 8.48460938 0.48828125 9.66796875 C1.02861357 13.18631584 1.89213088 15.16030346 4 18 C12.31227478 22.61793043 23.44283572 21.58655599 32.44921875 19.73046875 C36.2356246 18.64615345 38.84169897 17.27226285 41 14 C42.27428424 10.8841695 43.30369608 7.78046084 44.23828125 4.546875 C45 2 45 2 46 1 C48.14558827 0.91224395 50.29404421 0.89304781 52.44140625 0.90234375 C53.74658203 0.90556641 55.05175781 0.90878906 56.39648438 0.91210938 C57.7851569 0.92046599 59.17382877 0.92893095 60.5625 0.9375 C61.95507656 0.94251334 63.34765481 0.94707653 64.74023438 0.95117188 C68.1601987 0.96300566 71.58007844 0.9794912 75 1 C73.5874015 14.21688695 67.90545704 25.00283227 58.25390625 34.21484375 C47.23806757 42.93969345 32.63400089 44.51553108 19.08203125 44.39111328 C17.00193753 44.37501499 14.92378566 44.39105988 12.84375 44.41015625 C-0.87959943 44.43233384 -12.12560745 41.98453834 -23.125 33.625 C-25 31 -25 31 -25.125 27.9375 C-23.04397689 19.11242052 -19.35301453 9.66454452 -12 4 C-3.68181818 0 -3.68181818 0 0 0 Z " fill="#DDDDDD" transform="translate(69,80)"/>
<path d="M0 0 C1.21107422 -0.01160156 2.42214844 -0.02320312 3.66992188 -0.03515625 C15.83238364 0.0039304 27.67836896 1.58226104 37.4375 9.375 C43.97989409 16.22599759 44.73014283 23.63942837 44.5625 32.75 C44.52125 35.92625 44.48 39.1025 44.4375 42.375 C34.5375 42.375 24.6375 42.375 14.4375 42.375 C14.1075 37.095 13.7775 31.815 13.4375 26.375 C7.19248789 24.59071083 2.85510656 24.03877222 -3.4375 24.0625 C-4.28441406 24.04638672 -5.13132813 24.03027344 -6.00390625 24.01367188 C-12.72842696 24.00852293 -19.62327125 24.76235222 -24.8125 29.375 C-27.43704697 33.87422338 -29.51737734 38.58907771 -31.5625 43.375 C-41.70935844 39.99271385 -41.70935844 39.99271385 -44.625 34.30078125 C-46.70591161 27.80660295 -46.83626938 20.06856604 -45.5625 13.375 C-43.48311405 10.02702316 -41.14689505 8.85092737 -37.5625 7.375 C-36.55123047 6.82392578 -36.55123047 6.82392578 -35.51953125 6.26171875 C-24.59179545 0.62358114 -12.0563998 -0.11586503 0 0 Z " fill="#F2F2F2" transform="translate(102.5625,25.625)"/>
<path d="M0 0 C0.66 0 1.32 0 2 0 C1.97679687 1.02738281 1.95359375 2.05476563 1.9296875 3.11328125 C1.60066943 16.86558602 1.60066943 16.86558602 5.375 29.9375 C13.27973317 36.14836178 24.33203036 36.9130685 34 38 C34 38.66 34 39.32 34 40 C33.38592285 40.09498779 32.7718457 40.18997559 32.13916016 40.2878418 C29.29811296 40.73734081 26.46185094 41.21226374 23.625 41.6875 C22.65949219 41.83638672 21.69398437 41.98527344 20.69921875 42.13867188 C12.9097924 43.47176162 5.4066225 45.68302546 -0.375 51.3125 C-4.54689393 58.21217073 -7.05044058 64.91638952 -9.24975586 72.62817383 C-9.77893851 74.43555261 -10.38375117 76.22042429 -11 78 C-11.99 78.495 -11.99 78.495 -13 79 C-13.01458252 78.34515625 -13.02916504 77.6903125 -13.04418945 77.015625 C-13.11928043 74.00986327 -13.21573671 71.00513903 -13.3125 68 C-13.33505859 66.97003906 -13.35761719 65.94007812 -13.38085938 64.87890625 C-13.59998945 58.62373877 -14.22953427 53.65148996 -17 48 C-24.41030823 42.02487664 -35.92275551 41.47608687 -45 40 C-45 39.34 -45 38.68 -45 38 C-43.76765625 37.84144531 -42.5353125 37.68289062 -41.265625 37.51953125 C-24.24816292 35.6683333 -24.24816292 35.6683333 -10.5625 26.4375 C-5.42319989 18.41112248 -2.48599831 9.1355385 0 0 Z " fill="#E1E1E1" transform="translate(48,36)"/>
<path d="M0 0 C2.97 0.33 5.94 0.66 9 1 C9 1.33 9 1.66 9 2 C4.84895242 2.99906905 0.95074239 3.12906342 -3.3125 3.1328125 C-4.3495105 3.13424759 -4.3495105 3.13424759 -5.4074707 3.13571167 C-6.86311942 3.13638946 -8.31877122 3.13456324 -9.77441406 3.13037109 C-11.9929081 3.12501712 -14.2111997 3.13032966 -16.4296875 3.13671875 C-17.84895878 3.1360579 -19.26822993 3.13477659 -20.6875 3.1328125 C-21.97011719 3.13168457 -23.25273438 3.13055664 -24.57421875 3.12939453 C-27.52338253 3.01800223 -30.13937166 2.68849253 -33 2 C-33 1.67 -33 1.34 -33 1 C-28.62501407 0.97086928 -24.25005326 0.95315714 -19.875 0.9375 C-18.6375 0.92912109 -17.4 0.92074219 -16.125 0.91210938 C-14.92617187 0.90888672 -13.72734375 0.90566406 -12.4921875 0.90234375 C-11.39245605 0.89710693 -10.29272461 0.89187012 -9.15966797 0.88647461 C-6.02381895 0.9991442 -3.07940617 1.41373624 0 2 C0 1.34 0 0.68 0 0 Z " fill="#C1C1C1" transform="translate(98,121)"/>
<path d="M0 0 C0.33 0 0.66 0 1 0 C1.103125 1.11375 1.20625 2.2275 1.3125 3.375 C1.539375 4.57125 1.76625 5.7675 2 7 C2.99 7.66 3.98 8.32 5 9 C4.00956295 13.83628305 3.04301154 18.47618873 1 23 C0.67 23 0.34 23 0 23 C0 15.41 0 7.82 0 0 Z " fill="#989898" transform="translate(35,92)"/>
<path d="M0 0 C8.25 0 16.5 0 25 0 C25 0.33 25 0.66 25 1 C24.34926514 1.00410889 23.69853027 1.00821777 23.02807617 1.01245117 C20.08029254 1.04534173 17.13458866 1.11597762 14.1875 1.1875 C13.16333984 1.19330078 12.13917969 1.19910156 11.08398438 1.20507812 C8.30289211 1.28714314 5.72094706 1.41541477 3 2 C0.79216513 4.21885142 0.79216513 4.21885142 0 7 C-0.66 7.99 -1.32 8.98 -2 10 C-1.54177532 6.53058454 -1.10868317 3.32604951 0 0 Z " fill="#FDFDFD" transform="translate(115,83)"/>
<path d="M0 0 C0.66 0 1.32 0 2 0 C0.68139111 4.61513112 -1.21355437 8.09897612 -4 12 C-4.9435441 9.46100862 -5.16906025 8.39090725 -4.07421875 5.859375 C-3.61660156 5.16328125 -3.15898437 4.4671875 -2.6875 3.75 C-2.23761719 3.04359375 -1.78773438 2.3371875 -1.32421875 1.609375 C-0.88722656 1.07828125 -0.45023438 0.5471875 0 0 Z " fill="#B6B6B6" transform="translate(138,95)"/>
<path d="M0 0 C0.721875 0.103125 1.44375 0.20625 2.1875 0.3125 C-0.92266455 3.60038824 -3.82868925 6.14985988 -7.8125 8.3125 C-7.8125 5.3125 -7.8125 5.3125 -5.625 2.625 C-2.8125 0.3125 -2.8125 0.3125 0 0 Z " fill="#BFBFBF" transform="translate(59.8125,83.6875)"/>
<path d="M0 0 C3.63 0.33 7.26 0.66 11 1 C11 1.66 11 2.32 11 3 C7.7 3.33 4.4 3.66 1 4 C1.33 3.01 1.66 2.02 2 1 C1.34 0.67 0.68 0.34 0 0 Z " fill="#9A9A9A" transform="translate(71,73)"/>
<path d="M0 0 C0 4.29 0 8.58 0 13 C-1.9955516 9.00889681 -2.19546065 7.30013434 -2 3 C-2.99 2.67 -3.98 2.34 -5 2 C-1.125 0 -1.125 0 0 0 Z " fill="#F7F7F7" transform="translate(68,81)"/>
<path d="M0 0 C0.99 0.33 1.98 0.66 3 1 C1.75443908 1.81928886 0.50333365 2.63015186 -0.75 3.4375 C-1.44609375 3.88996094 -2.1421875 4.34242187 -2.859375 4.80859375 C-4.92957014 5.9608009 -6.68696324 6.54676982 -9 7 C-8 4 -8 4 -6.1875 2.8125 C-4 2 -4 2 0 2 C0 1.34 0 0.68 0 0 Z " fill="#B6B6B6" transform="translate(124,113)"/>
<path d="M0 0 C0.66 0 1.32 0 2 0 C2 2.97 2 5.94 2 9 C1.01 9 0.02 9 -1 9 C-2.25541557 5.23375329 -1.37061958 3.62811066 0 0 Z " fill="#6A6A6A" transform="translate(48,36)"/>
<path d="M0 0 C3.37503669 1.1858237 5.64722731 2.27573689 8 5 C7.01 5.495 7.01 5.495 6 6 C3.5249829 4.88568235 1.32116581 3.41849022 -1 2 C-0.67 1.34 -0.34 0.68 0 0 Z " fill="#BCBCBC" transform="translate(50,114)"/>
<path d="M0 0 C-3.50538557 1.96301592 -7.13351728 2.95902388 -11 4 C-11.33 3.34 -11.66 2.68 -12 2 C-10.68 2 -9.36 2 -8 2 C-8 1.34 -8 0.68 -8 0 C-5.13822943 -1.43088528 -3.06624227 -0.59991697 0 0 Z " fill="#AAAAAA" transform="translate(64,78)"/>
<path d="M0 0 C0.66 0.33 1.32 0.66 2 1 C2 3.64 2 6.28 2 9 C1.01 8.34 0.02 7.68 -1 7 C-0.67 4.69 -0.34 2.38 0 0 Z " fill="#A3A3A3" transform="translate(45,104)"/>
<path d="M0 0 C0.33 0.66 0.66 1.32 1 2 C-1.36292656 4.52588702 -2.66462511 5.88820837 -6 7 C-6.66 6.34 -7.32 5.68 -8 5 C-4.04 2.525 -4.04 2.525 0 0 Z " fill="#B5B5B5" transform="translate(36,64)"/>
<path d="M0 0 C2.97 0.33 5.94 0.66 9 1 C9 1.33 9 1.66 9 2 C5.37 2.33 1.74 2.66 -2 3 C-1.34 2.67 -0.68 2.34 0 2 C0 1.34 0 0.68 0 0 Z " fill="#959595" transform="translate(98,121)"/>
<path d="M0 0 C0.33 0 0.66 0 1 0 C2.42258812 3.82320557 3.24042276 6.91281305 3 11 C1.5 10 1.5 10 0 8 C-0.27345479 5.28153765 -0.13491285 2.74322801 0 0 Z " fill="#F6F6F6" transform="translate(36,91)"/>
</svg>
